<?xml version="1.0" encoding="utf-8"?>
<!-- Generator: Adobe Illustrator 21.1.0, SVG Export Plug-In . SVG Version: 6.00 Build 0)  -->
<svg version="1.1" id="Layer_1" xmlns="http://www.w3.org/2000/svg" xmlns:xlink="http://www.w3.org/1999/xlink" x="0px" y="0px"
	 viewBox="0 0 298 88" style="enable-background:new 0 0 298 88;" xml:space="preserve">
<path style="fill:#ED1C24;" d="M23.2,23.4h17.2c3.4,0,5.9,0.1,7.6,0.4c1.7,0.3,3.2,0.9,4.5,1.8c1.3,0.9,2.4,2.1,3.3,3.6
	s1.3,3.2,1.3,5c0,2-0.5,3.9-1.6,5.5c-1.1,1.7-2.6,2.9-4.4,3.8c2.6,0.8,4.6,2.1,6,3.9c1.4,1.8,2.1,4,2.1,6.5c0,2-0.5,3.9-1.4,5.7
	s-2.1,3.3-3.7,4.4c-1.6,1.1-3.5,1.8-5.8,2c-1.4,0.2-4.9,0.3-10.5,0.3H23.2V23.4z M31.9,30.6v9.9h5.7c3.4,0,5.5,0,6.3-0.1
	c1.5-0.2,2.7-0.7,3.5-1.5s1.3-2,1.3-3.4c0-1.3-0.4-2.4-1.1-3.2c-0.7-0.8-1.8-1.3-3.3-1.5c-0.9-0.1-3.3-0.1-7.4-0.1H31.9z M31.9,47.6
	v11.5h8c3.1,0,5.1-0.1,5.9-0.3c1.3-0.2,2.3-0.8,3.1-1.7c0.8-0.9,1.2-2.1,1.2-3.6c0-1.3-0.3-2.4-0.9-3.3c-0.6-0.9-1.5-1.6-2.7-2
	c-1.2-0.4-3.7-0.6-7.7-0.6H31.9z"/>
<path d="M116,52.4l8.4-0.8c0.5,2.8,1.5,4.9,3.1,6.2s3.6,2,6.3,2c2.8,0,4.9-0.6,6.3-1.8c1.4-1.2,2.1-2.6,2.1-4.1c0-1-0.3-1.9-0.9-2.6
	c-0.6-0.7-1.6-1.3-3.1-1.9c-1-0.4-3.3-1-6.9-1.9c-4.6-1.2-7.9-2.6-9.8-4.2c-2.6-2.4-4-5.2-4-8.6c0-2.2,0.6-4.2,1.9-6.1
	c1.2-1.9,3-3.4,5.4-4.4c2.3-1,5.2-1.5,8.5-1.5c5.4,0,9.4,1.2,12.2,3.5c2.7,2.4,4.2,5.5,4.3,9.5l-8.7,0.4c-0.4-2.2-1.2-3.8-2.4-4.8
	c-1.2-1-3.1-1.5-5.5-1.5c-2.5,0-4.5,0.5-5.9,1.6c-0.9,0.7-1.4,1.6-1.4,2.7c0,1,0.4,1.9,1.3,2.6c1.1,0.9,3.8,1.9,8,2.9s7.3,2,9.4,3.1
	c2,1.1,3.6,2.5,4.7,4.4s1.7,4.1,1.7,6.8c0,2.5-0.7,4.8-2.1,6.9s-3.3,3.7-5.8,4.8c-2.5,1-5.6,1.6-9.3,1.6c-5.4,0-9.6-1.3-12.5-3.8
	C118.3,60.8,116.5,57.2,116,52.4z"/>
<path d="M154.9,66.4V23.4h8.7v42.9H154.9z"/>
<path d="M168.8,23.4h15.8c3.6,0,6.3,0.3,8.2,0.8c2.5,0.7,4.7,2.1,6.5,4c1.8,1.9,3.2,4.2,4.1,7c0.9,2.7,1.4,6.1,1.4,10.2
	c0,3.5-0.4,6.6-1.3,9.1c-1.1,3.1-2.6,5.7-4.6,7.6c-1.5,1.5-3.5,2.6-6.1,3.4c-1.9,0.6-4.5,0.9-7.7,0.9h-16.3V23.4z M177.5,30.7v28.4
	h6.5c2.4,0,4.2-0.1,5.2-0.4c1.4-0.4,2.6-0.9,3.5-1.8s1.7-2.2,2.3-4.1c0.6-1.9,0.9-4.5,0.9-7.9c0-3.3-0.3-5.9-0.9-7.6
	c-0.6-1.8-1.4-3.2-2.5-4.2s-2.4-1.7-4-2c-1.2-0.3-3.6-0.4-7.1-0.4H177.5z"/>
<path d="M209.2,66.4V23.4H241v7.3h-23.2v9.5h21.6v7.2h-21.6v11.7h24v7.2H209.2z"/>
<path d="M244,52.4l8.4-0.8c0.5,2.8,1.5,4.9,3.1,6.2s3.6,2,6.3,2c2.8,0,4.9-0.6,6.3-1.8s2.1-2.6,2.1-4.1c0-1-0.3-1.9-0.9-2.6
	c-0.6-0.7-1.6-1.3-3.1-1.9c-1-0.4-3.3-1-6.9-1.9c-4.6-1.2-7.9-2.6-9.8-4.2c-2.6-2.4-4-5.2-4-8.6c0-2.2,0.6-4.2,1.9-6.1
	s3-3.4,5.4-4.4s5.2-1.5,8.5-1.5c5.4,0,9.4,1.2,12.2,3.5c2.7,2.4,4.2,5.5,4.3,9.5l-8.7,0.4c-0.4-2.2-1.2-3.8-2.4-4.8
	s-3.1-1.5-5.5-1.5c-2.5,0-4.5,0.5-5.9,1.6c-0.9,0.7-1.4,1.6-1.4,2.7c0,1,0.4,1.9,1.3,2.6c1.1,0.9,3.8,1.9,8,2.9s7.3,2,9.4,3.1
	c2,1.1,3.6,2.5,4.7,4.4s1.7,4.1,1.7,6.8c0,2.5-0.7,4.8-2.1,6.9s-3.3,3.7-5.8,4.8c-2.5,1-5.6,1.6-9.3,1.6c-5.4,0-9.6-1.3-12.5-3.8
	S244.6,57.2,244,52.4z"/>
</svg>
