<?xml version="1.0" encoding="utf-8"?>
<!-- Generator: Adobe Illustrator 16.0.0, SVG Export Plug-In . SVG Version: 6.00 Build 0)  -->
<!DOCTYPE svg PUBLIC "-//W3C//DTD SVG 1.1//EN" "http://www.w3.org/Graphics/SVG/1.1/DTD/svg11.dtd">
<svg version="1.1" id="Layer_1" xmlns="http://www.w3.org/2000/svg" xmlns:xlink="http://www.w3.org/1999/xlink" x="0px" y="0px"
	 width="25px" height="25px" viewBox="0 0 25 25" enable-background="new 0 0 25 25" xml:space="preserve">
<path fill="#43BDEF" d="M12.5,0.915c-6.495,0-11.761,5.265-11.761,11.76S6.005,24.435,12.5,24.435s11.761-5.266,11.761-11.761
	S18.995,0.915,12.5,0.915z M18.04,10.542c0.006,0.121,0.008,0.242,0.008,0.364c0,0.56-0.066,1.131-0.194,1.698
	c-0.724,3.211-3.47,6.307-7.938,6.307c-1.612,0-3.115-0.466-4.381-1.264c0.224,0.025,0.451,0.039,0.683,0.039
	c1.339,0,2.571-0.45,3.55-1.205c-1.251-0.022-2.306-0.836-2.67-1.954c0.175,0.034,0.354,0.052,0.537,0.052
	c0.261,0,0.514-0.035,0.754-0.099c-0.963-0.191-1.748-0.858-2.098-1.74c-0.125-0.316-0.195-0.659-0.195-1.02
	c0-0.012,0-0.023,0-0.035c0.385,0.211,0.826,0.337,1.294,0.352c-0.766-0.504-1.271-1.365-1.271-2.342
	c0-0.515,0.142-0.999,0.388-1.414c1.409,1.702,3.516,2.822,5.89,2.94c-0.047-0.207-0.072-0.421-0.072-0.642
	c0-1.553,1.28-2.813,2.858-2.813c0.822,0,1.564,0.341,2.085,0.889c0.651-0.126,1.265-0.36,1.815-0.684
	c-0.214,0.657-0.666,1.209-1.256,1.557c0.578-0.067,1.128-0.218,1.641-0.442C19.083,9.651,18.599,10.146,18.04,10.542z"/>
</svg>
